<?xml version="1.0" encoding="UTF-8"?>
<svg id="Layer_1" data-name="Layer 1" xmlns="http://www.w3.org/2000/svg" xmlns:xlink="http://www.w3.org/1999/xlink" viewBox="0 0 1000 1000">
  <defs>
    <style>
      .cls-1 {
        fill: #00041c;
      }

      .cls-2 {
        fill: url(#linear-gradient);
      }
    </style>
    <linearGradient id="linear-gradient" x1="196.1" y1="500" x2="803.9" y2="500" gradientUnits="userSpaceOnUse">
      <stop offset="0" stop-color="#8376ff"/>
      <stop offset="1" stop-color="#5cf297"/>
    </linearGradient>
  </defs>
  <rect class="cls-1" x="0" width="1000" height="1000"/>
  <path class="cls-2" d="M500,401.8c46-3.54,62.37-60.16,145.53-60.16s158.36,70.78,158.36,158.36-71.22,158.36-158.36,158.36-99.53-57.07-145.53-60.16c-46.45,3.1-62.81,60.16-145.54,60.16-87.58,0-158.36-71.22-158.36-158.36s70.78-158.36,158.36-158.36c82.72,0,99.09,56.62,145.54,60.16ZM645.54,603.51c56.18,0,103.51-47.33,103.51-103.95s-47.33-103.07-103.51-103.07c-68.12,0-74.32,61.93-145.53,61.93s-77.85-61.93-145.54-61.93c-56.62,0-103.51,46.45-103.51,103.07s46.89,103.95,103.51,103.95c67.68,0,74.32-61.93,145.54-61.93s77.41,61.93,145.53,61.93Z"/>
</svg>